:SAMPLES-PER-SECOND 30
:FRAME-RANGE 1-744
:FULLY-SPECIFIED
:DEGREES
94
root  -35.6315 39.9797 -145.988 -167.592 76.4546 -163.046
RightUpLeg  9.44674 0.197521 2.86527
RightLeg  -0.276296 -0.472105 -2.2439
RightFoot  -8.2285 -0.372311 11.5988
RightToes  5.82063e-011 0 -3.6325e-017
Spine  12.9238 5.26363 3.95933
Spine1  0.686464 7.70518 -10.0864
HEad  22.9492 2.45741 -3.49272
LeftShoulder1  3.04796 -4.20853 -33.5083
LeftArm  23.8236 -1.68639 -28.4954
LeftForeArm  -6.36217 -9.58318 -16.2827
LeftHand  -1.23142 -4.58256 14.564
RightShoulder  7.01424 5.08686 69.1382
RightArm  40.0517 -1.87288 -4.31279
RightForeArm  2.48952 18.4013 7.64967
RightHand  1.38715 20.8104 5.58396
LeftUpLeg  1.87112 5.71531 7.0618
LeftLeg  6.76622 -18.5931 0.524183
LeftFoot  -6.1142 -0.0305752 1.47646
LeftToes  1.25507e-010 -3.78807e-010 5.71421e-011
95
root  -35.6795 40.0074 -146.311 -168.183 77.9938 -163.878
RightUpLeg  10.8938 0.333148 2.47103
RightLeg  -3.77806 -3.33406 -2.7028
RightFoot  -7.45166 -0.422363 10.9098
RightToes  5.82063e-011 0 -3.6325e-017
Spine  12.7378 5.3343 4.17258
Spine1  0.206599 7.85646 -10.7159
HEad  22.9599 2.96666 -3.91171
LeftShoulder1  3.02125 -4.10592 -33.6878
LeftArm  25.405 -2.06391 -28.1247
LeftForeArm  -7.17529 -9.9105 -16.2372
LeftHand  -1.20871 -4.55317 14.3437
RightShoulder  6.9983 5.08978 68.9908
RightArm  40.5312 -1.79166 -4.35171
RightForeArm  0.946549 19.0556 7.19951
RightHand  1.2665 21.1476 4.98232
LeftUpLeg  2.5706 6.14225 6.38107
LeftLeg  5.60016 -17.4094 0.0494545
LeftFoot  -5.56476 -0.0726872 2.10524
LeftToes  1.25507e-010 -3.78807e-010 5.71421e-011
96
root  -35.7769 40.0287 -146.577 -167.091 79.6905 -163.082
RightUpLeg  11.2501 0.138289 1.99002
RightLeg  -5.05861 -6.22786 -2.42395
RightFoot  -8.67314 -0.313021 10.8706
RightToes  5.82063e-011 0 -3.6325e-017
Spine  12.5994 5.32228 4.26818
Spine1  -0.233059 7.81779 -10.9258
HEad  22.1769 2.50856 -4.15217
LeftShoulder1  3.0041 -4.04578 -33.7756
LeftArm  25.2108 -1.96535 -27.9193
LeftForeArm  -6.69403 -9.87539 -16.2235
LeftHand  -1.22102 -4.48077 14.5871
RightShoulder  7.20198 5.38557 68.6998
RightArm  39.666 -1.38161 -4.24444
RightForeArm  -0.289683 18.8535 7.43305
RightHand  1.10022 21.174 4.2584
LeftUpLeg  2.93648 6.47544 5.90726
LeftLeg  4.71702 -15.9539 -0.241391
LeftFoot  -5.06912 -0.110929 2.58216
LeftToes  1.25507e-010 -3.78807e-010 5.71421e-011
97
root  -35.9288 40.0943 -146.791 -162.043 81.3499 -158.195
RightUpLeg  11.0407 -0.092123 1.79909
RightLeg  -4.81963 -6.40026 -2.24842
RightFoot  -9.09736 -0.2346 8.79847
RightToes  5.82063e-011 0 -3.6325e-017
Spine  12.9639 5.16669 4.75594
Spine1  -0.901551 7.63682 -10.7679
HEad  20.9818 2.15315 -4.48462
LeftShoulder1  3.0155 -4.07466 -33.7746
LeftArm  24.517 -1.60528 -27.8661
LeftForeArm  -5.85599 -9.66922 -16.2582
LeftHand  -1.22548 -4.4688 14.6558
RightShoulder  7.37668 5.6567 68.3574
RightArm  36.2186 -0.738915 -3.82084
RightForeArm  1.79083 17.7761 8.10356
RightHand  0.99288 21.3619 3.76292
LeftUpLeg  3.34221 6.70801 5.93076
LeftLeg  3.67883 -14.3121 -0.185018
LeftFoot  -4.49128 -0.139789 2.78798
LeftToes  1.25507e-010 -3.78807e-010 5.71421e-011
98
root  -36.1117 40.1246 -146.917 -153.507 82.9631 -149.748
RightUpLeg  10.5635 0.667025 2.48376
RightLeg  -3.58129 -6.99203 -2.96702
RightFoot  -8.95585 -0.258133 9.44702
RightToes  5.82063e-011 0 -3.6325e-017
Spine  13.2437 4.84075 5.03082
Spine1  -1.09426 7.30167 -10.6225
HEad  19.3814 1.58814 -4.25164
LeftShoulder1  3.00344 -4.12162 -33.3751
LeftArm  24.2184 -1.20766 -27.9544
LeftForeArm  -5.7724 -9.64984 -16.2439
LeftHand  -1.18246 -4.26693 14.439
RightShoulder  7.64102 5.9894 68.3308
RightArm  36.7052 -0.15604 -3.93181
RightForeArm  -0.0291728 18.3985 7.71987
RightHand  0.875611 21.1706 3.2881
LeftUpLeg  3.29838 6.91798 6.11959
LeftLeg  3.58871 -12.5405 -0.176634
LeftFoot  -4.35982 -0.148408 2.86365
LeftToes  1.25507e-010 -3.78807e-010 5.71421e-011
99
root  -36.3042 40.1587 -146.965 -140.628 84.3841 -136.949
RightUpLeg  9.93386 0.157476 2.18361
RightLeg  -1.95355 -5.76853 -2.64514
RightFoot  -9.07783 -0.23381 8.68986
RightToes  5.82063e-011 0 -3.6325e-017
Spine  13.431 4.66827 4.66077
Spine1  -1.05258 6.94937 -9.72509
HEad  17.7063 0.737137 -4.08092
LeftShoulder1  3.05127 -4.26529 -33.2643
LeftArm  24.5998 -1.41946 -27.9088
LeftForeArm  -5.68829 -9.22251 -16.5283
LeftHand  -1.14789 -4.22376 14.0891
RightShoulder  7.84924 6.26865 68.2124
RightArm  35.6899 0.352448 -3.89518
RightForeArm  -0.612453 18.3142 7.80371
RightHand  0.747757 21.1117 2.74278
LeftUpLeg  3.2234 7.07158 6.38745
LeftLeg  3.53984 -10.8766 -0.128877
LeftFoot  -4.25644 -0.13199 2.54663
LeftToes  1.25507e-010 -3.78807e-010 5.71421e-011
